<svg version="1.1" xmlns="http://www.w3.org/2000/svg" xmlns:xlink="http://www.w3.org/1999/xlink" style="" xml:space="preserve" width="473.932" height="473.932"><rect id="backgroundrect" width="100%" height="100%" x="0" y="0" fill="none" stroke="none"/>
















<g class="currentLayer" style=""><title>Layer 1</title><g id="svg_1" class="selected" stroke="#dadada" stroke-opacity="1" fill="#ffffff" fill-opacity="1">
	<g id="svg_2" stroke="#dadada" stroke-opacity="1" fill="#ffffff" fill-opacity="1">
		<path style="" d="M385.513,301.214c-27.438,0-51.64,13.072-67.452,33.09l-146.66-75.002    c1.92-7.161,3.3-14.56,3.3-22.347c0-8.477-1.639-16.458-3.926-24.224l146.013-74.656c15.725,20.924,40.553,34.6,68.746,34.6    c47.758,0,86.391-38.633,86.391-86.348C471.926,38.655,433.292,0,385.535,0c-47.65,0-86.326,38.655-86.326,86.326    c0,7.809,1.381,15.229,3.322,22.412L155.892,183.74c-15.833-20.039-40.079-33.154-67.56-33.154    c-47.715,0-86.326,38.676-86.326,86.369s38.612,86.348,86.326,86.348c28.236,0,53.043-13.719,68.832-34.664l145.948,74.656    c-2.287,7.744-3.947,15.79-3.947,24.289c0,47.693,38.676,86.348,86.326,86.348c47.758,0,86.391-38.655,86.391-86.348    C471.904,339.848,433.271,301.214,385.513,301.214z" id="svg_3" stroke="#dadada" stroke-opacity="1" fill="#ffffff" fill-opacity="1"/>
	</g>
	<g id="svg_4" stroke="#dadada" stroke-opacity="1" fill="#ffffff" fill-opacity="1">
	</g>
	<g id="svg_5" stroke="#dadada" stroke-opacity="1" fill="#ffffff" fill-opacity="1">
	</g>
	<g id="svg_6" stroke="#dadada" stroke-opacity="1" fill="#ffffff" fill-opacity="1">
	</g>
	<g id="svg_7" stroke="#dadada" stroke-opacity="1" fill="#ffffff" fill-opacity="1">
	</g>
	<g id="svg_8" stroke="#dadada" stroke-opacity="1" fill="#ffffff" fill-opacity="1">
	</g>
	<g id="svg_9" stroke="#dadada" stroke-opacity="1" fill="#ffffff" fill-opacity="1">
	</g>
	<g id="svg_10" stroke="#dadada" stroke-opacity="1" fill="#ffffff" fill-opacity="1">
	</g>
	<g id="svg_11" stroke="#dadada" stroke-opacity="1" fill="#ffffff" fill-opacity="1">
	</g>
	<g id="svg_12" stroke="#dadada" stroke-opacity="1" fill="#ffffff" fill-opacity="1">
	</g>
	<g id="svg_13" stroke="#dadada" stroke-opacity="1" fill="#ffffff" fill-opacity="1">
	</g>
	<g id="svg_14" stroke="#dadada" stroke-opacity="1" fill="#ffffff" fill-opacity="1">
	</g>
	<g id="svg_15" stroke="#dadada" stroke-opacity="1" fill="#ffffff" fill-opacity="1">
	</g>
	<g id="svg_16" stroke="#dadada" stroke-opacity="1" fill="#ffffff" fill-opacity="1">
	</g>
	<g id="svg_17" stroke="#dadada" stroke-opacity="1" fill="#ffffff" fill-opacity="1">
	</g>
	<g id="svg_18" stroke="#dadada" stroke-opacity="1" fill="#ffffff" fill-opacity="1">
	</g>
</g><g id="svg_19">
</g><g id="svg_20">
</g><g id="svg_21">
</g><g id="svg_22">
</g><g id="svg_23">
</g><g id="svg_24">
</g><g id="svg_25">
</g><g id="svg_26">
</g><g id="svg_27">
</g><g id="svg_28">
</g><g id="svg_29">
</g><g id="svg_30">
</g><g id="svg_31">
</g><g id="svg_32">
</g><g id="svg_33">
</g></g></svg>